<svg width="38" height="22" viewBox="0 0 38 22" xmlns="http://www.w3.org/2000/svg" xmlns:xlink="http://www.w3.org/1999/xlink">
    <defs>
        <path id="c6owzpetla" d="M0 0h38v22H0z"/>
        <path id="g7jg8ehvwc" d="M0 0h38v22H0z"/>
    </defs>
    <g fill="none" fill-rule="evenodd">
        <g>
            <mask id="dti5hqgulb" fill="#fff">
                <use xlink:href="#c6owzpetla"/>
            </mask>
            <path d="M0 17.997V4.003A4.003 4.003 0 0 1 4.003 0h29.994A4.003 4.003 0 0 1 38 4.003v13.994A4.003 4.003 0 0 1 33.997 22H4.003A4.003 4.003 0 0 1 0 17.997" fill="#11202E" mask="url(#dti5hqgulb)"/>
        </g>
        <g>
            <mask id="c6souvxftd" fill="#fff">
                <use xlink:href="#g7jg8ehvwc"/>
            </mask>
            <path d="M33.997 0H4.003A4.003 4.003 0 0 0 0 4.003v13.994A4.003 4.003 0 0 0 4.003 22h29.994A4.003 4.003 0 0 0 38 17.997V4.003A4.003 4.003 0 0 0 33.997 0zm0 1.2A2.806 2.806 0 0 1 36.8 4.003v13.994a2.806 2.806 0 0 1-2.803 2.803H4.003A2.806 2.806 0 0 1 1.2 17.997V4.003A2.806 2.806 0 0 1 4.003 1.2h29.994z" fill="#FFF" mask="url(#c6souvxftd)"/>
        </g>
    </g>
</svg>
