<svg width="36" height="22" viewBox="0 0 36 22" xmlns="http://www.w3.org/2000/svg" xmlns:xlink="http://www.w3.org/1999/xlink">
    <defs>
        <path id="jk76hgxnpa" d="M0 0h36v22H0z"/>
    </defs>
    <g fill="none" fill-rule="evenodd">
        <path d="M33.772.5H2.228C1.275.5.5 1.356.5 2.409v17.182c0 1.053.775 1.909 1.728 1.909h31.544c.953 0 1.728-.856 1.728-1.909V2.409C35.5 1.356 34.725.5 33.772.5" fill="#0F39B8"/>
        <path d="m34.5 18.03-16.373 2.721a.804.804 0 0 1-.259 0L1.5 18.03c-.214-.036-.373-.241-.373-.483V4.448c0-.242.16-.447.374-.483l16.37-2.716a.745.745 0 0 1 .257 0L34.5 3.965c.215.036.374.241.374.483v13.099c0 .242-.159.447-.374.483M33.997.25H2.002C1.034.25.25 1.125.25 2.204v17.591c0 1.075.784 1.955 1.752 1.955h31.995c.964 0 1.753-.88 1.753-1.955V2.204c0-1.079-.785-1.954-1.753-1.954" fill="#FFF"/>
        <g>
            <mask id="dbioyhwdpb" fill="#fff">
                <use xlink:href="#jk76hgxnpa"/>
            </mask>
            <path d="M34.223 0H1.777C.796 0 0 .895 0 2v18c0 1.1.795 2 1.777 2h32.446C35.2 22 36 21.1 36 20V2c0-1.105-.796-2-1.777-2zm0 .5c.704 0 1.277.673 1.277 1.5v18c0 .827-.573 1.5-1.277 1.5H1.777C1.073 21.5.5 20.827.5 20V2c0-.827.573-1.5 1.277-1.5h32.446z" fill="#0F39B8" mask="url(#dbioyhwdpb)"/>
        </g>
    </g>
</svg>
