<svg width="36" height="22" viewBox="0 0 36 22" xmlns="http://www.w3.org/2000/svg" xmlns:xlink="http://www.w3.org/1999/xlink">
    <defs>
        <path id="sy0qysmsda" d="M0 0h36v22H0z"/>
    </defs>
    <g fill="none" fill-rule="evenodd">
        <path d="M33.772.5H2.228C1.275.5.5 1.356.5 2.409v17.182c0 1.053.775 1.909 1.728 1.909h31.544c.953 0 1.728-.856 1.728-1.909V2.409C35.5 1.356 34.725.5 33.772.5" fill="#0F39B8"/>
        <mask id="7m7v6kt7gb" fill="#fff">
            <use xlink:href="#sy0qysmsda"/>
        </mask>
        <path d="m34.733 18.194-16.604 2.785a.822.822 0 0 1-.262 0l-16.6-2.785c-.217-.037-.378-.247-.378-.495V4.295c0-.248.16-.458.379-.495l16.599-2.78a.822.822 0 0 1 .262 0l16.604 2.78c.218.037.379.247.379.495v13.402c0 .248-.161.46-.38.495M34.223 0H1.778C.796 0 0 .895 0 2v18c0 1.1.796 2 1.777 2h32.446C35.2 22 36 21.1 36 20V2c0-1.105-.795-2-1.777-2" fill="#FFF" mask="url(#7m7v6kt7gb)"/>
    </g>
</svg>
