<?xml version="1.0" encoding="UTF-8" standalone="no"?>
<!DOCTYPE svg PUBLIC "-//W3C//DTD SVG 1.1//EN" "http://www.w3.org/Graphics/SVG/1.1/DTD/svg11.dtd">
<svg width="100%" height="100%" viewBox="0 0 32 16" version="1.1" xmlns="http://www.w3.org/2000/svg" xmlns:xlink="http://www.w3.org/1999/xlink" xml:space="preserve" xmlns:serif="http://www.serif.com/" style="fill-rule:evenodd;clip-rule:evenodd;stroke-linejoin:round;stroke-miterlimit:2;">
    <g transform="matrix(1.14286,0,0,1.14286,-43.7463,-54.2)">
        <g id="path-1">
            <path d="M41.39,61.425C40.868,61.425 40.398,61.111 40.199,60.629C39.999,60.148 40.11,59.593 40.478,59.225C43.601,56.102 49.183,50.52 51.367,48.336C51.608,48.095 51.936,47.959 52.278,47.959C52.62,47.959 52.948,48.095 53.189,48.336C55.373,50.52 60.955,56.102 64.078,59.225C64.446,59.593 64.557,60.148 64.357,60.629C64.158,61.111 63.688,61.425 63.166,61.425C57.779,61.425 46.777,61.425 41.39,61.425Z" style="fill:white;fill-rule:nonzero;"/>
            <path d="M41.39,61.425C40.868,61.425 40.398,61.111 40.199,60.629C39.999,60.148 40.11,59.593 40.478,59.225C43.601,56.102 49.183,50.52 51.367,48.336C51.608,48.095 51.936,47.959 52.278,47.959C52.62,47.959 52.948,48.095 53.189,48.336C55.373,50.52 60.955,56.102 64.078,59.225C64.446,59.593 64.557,60.148 64.357,60.629C64.158,61.111 63.688,61.425 63.166,61.425C57.779,61.425 46.777,61.425 41.39,61.425ZM42.503,59.675L62.053,59.675L52.278,49.9L42.503,59.675Z" style="fill:rgb(66,89,120);"/>
        </g>
    </g>
</svg>
